#!OML:ASF \\sashay\E\Suitcase\Project 1\Capture day 1\Session 1\Male1.ASF
:FULLY-SPECIFIED
:DEGREES
116
root -0.785683 17.7339 9.11248 10.4836 3.11299 -0.282123
lowerback 8.07387 -3.49446 11.0717
upperback 6.29939 -4.05891 11.3958
thorax 2.28272 -1.91274 6.17468
lowerneck -6.78064 -10.4538 -7.73662
upperneck 35.4247 -12.8812 -3.04245
head 13.3997 -6.89158 -1.55847
rclavicle 0 2.54444e-014
rhumerus -9.508 -15.9148 -61.8107
rradius 24.7314
rwrist -2.7785
rhand -28.5724 25.068
rfingers 7.12502
rthumb -1.93878 -4.90293
lclavicle 0 2.54444e-014
lhumerus -29.888 -7.37877 94.5215
lradius 46.9762
lwrist -0.445266
lhand 0.267299 44.322
lfingers 7.12502
lthumb 25.8464 72.5857
rfemur -13.5376 -1.92341 21.3958
rtibia 13.7027
rfoot -9.43979 -12.6231
rtoes 13.0194
lfemur -13.7904 -0.9867 -17.8957
ltibia 14.486
lfoot -10.4252 1.12012
ltoes -1.63304
117
root -0.818987 17.7321 9.10765 10.5595 2.82879 -0.329054
lowerback 8.24323 -3.29571 10.9259
upperback 6.26683 -3.77167 11.5757
thorax 2.16719 -1.78419 6.44393
lowerneck -6.42515 -10.5103 -7.83598
upperneck 35.3475 -12.9623 -3.06079
head 13.3016 -6.94223 -1.53203
rclavicle 1.59028e-015 1.145e-013
rhumerus -9.49794 -16.0253 -61.5523
rradius 24.223
rwrist -2.13982
rhand -28.5221 25.5362
rfingers 7.12502
rthumb -1.89017 -4.43518
lclavicle 1.59028e-015 1.145e-013
lhumerus -30.0853 -7.43011 94.6109
lradius 47.3327
lwrist -0.0838598
lhand 0.315315 44.5675
lfingers 7.12502
lthumb 25.8924 72.8245
rfemur -13.8363 -0.982333 21.4761
rtibia 13.951
rfoot -9.56809 -13.229
rtoes 13.1426
lfemur -13.878 -0.805816 -17.7352
ltibia 14.3576
lfoot -10.1837 1.29293
ltoes -1.74327
118
root -0.817511 17.7345 9.09762 10.5893 2.98928 -0.114837
lowerback 8.42262 -3.35534 11.0855
upperback 6.21784 -3.79343 11.5936
thorax 2.00881 -1.79287 6.39011
lowerneck -6.23098 -10.5139 -7.78341
upperneck 35.2271 -12.9734 -3.10408
head 13.1993 -6.94722 -1.53644
rclavicle 1.43125e-014 -7.63333e-014
rhumerus -9.45165 -15.2849 -61.4855
rradius 24.3309
rwrist -2.30067
rhand -28.7228 25.2839
rfingers 7.12502
rthumb -2.08396 -4.6857
lclavicle 1.43125e-014 -7.63333e-014
lhumerus -30.1149 -7.18037 94.624
lradius 47.4097
lwrist -0.122802
lhand -0.150438 44.5271
lfingers 7.12502
lthumb 25.4463 72.8485
rfemur -13.9564 -1.4279 21.2783
rtibia 14.1287
rfoot -9.58829 -12.9663
rtoes 12.9274
lfemur -13.859 -0.96443 -17.9663
ltibia 14.1836
lfoot -10.0198 1.28084
ltoes -1.86698
119
root -0.814485 17.7371 9.08504 10.638 3.23391 0.0950223
lowerback 8.48101 -3.47892 11.2612
upperback 6.23159 -3.93145 11.5761
thorax 1.98564 -1.85431 6.2897
lowerneck -6.15668 -10.4794 -7.64724
upperneck 35.105 -12.9445 -3.1181
head 13.1145 -6.92074 -1.54508
rclavicle 1.59028e-014 -4.77083e-014
rhumerus -9.25962 -14.6181 -61.4863
rradius 24.0959
rwrist -2.51837
rhand -28.1968 25.0445
rfingers 7.12502
rthumb -1.57597 -4.92943
lclavicle 1.59028e-014 -4.77083e-014
lhumerus -30.0274 -6.95193 94.4509
lradius 47.3924
lwrist -0.0866858
lhand -0.701169 43.5127
lfingers 7.12502
lthumb 24.9186 71.9082
rfemur -14.0621 -2.0094 21.0926
rtibia 14.2591
rfoot -9.59657 -12.6565
rtoes 12.7572
lfemur -13.9224 -1.07418 -18.2032
ltibia 14.1216
lfoot -9.96718 1.10129
ltoes -1.98792
120
root -0.821088 17.7386 9.0867 10.6598 3.38633 0.136735
lowerback 8.41642 -3.45745 11.4269
upperback 6.28977 -3.91424 11.7387
thorax 2.09105 -1.84099 6.37521
lowerneck -6.18881 -10.5626 -7.861
upperneck 35.0867 -13.0394 -3.05291
head 13.1431 -6.97519 -1.50368
rclavicle 4.77083e-015 -6.36111e-014
rhumerus -8.73977 -15.541 -61.3445
rradius 23.5627
rwrist -1.2204
rhand -28.1651 25.3598
rfingers 7.12502
rthumb -1.54537 -4.61434
lclavicle 4.77083e-015 -6.36111e-014
lhumerus -29.9727 -6.90729 94.6433
lradius 47.578
lwrist 0.255663
lhand -0.337495 43.8974
lfingers 7.12502
lthumb 25.2671 72.2442
rfemur -14.1623 -2.41331 21.1162
rtibia 14.4675
rfoot -9.68875 -12.3981
rtoes 12.6544
lfemur -13.8852 -0.929277 -18.2374
ltibia 13.9814
lfoot -9.95272 0.773425
ltoes -2.04225
121
root -0.829438 17.7376 9.07282 10.5783 3.54298 0.0901124
lowerback 8.63325 -3.55383 11.7664
upperback 6.31816 -3.97536 11.7093
thorax 1.98393 -1.86023 6.17705
lowerneck -6.08872 -10.5433 -7.67158
upperneck 35.0728 -13.0589 -3.03597
head 13.0985 -6.95907 -1.51905
rclavicle 3.49861e-014 3.81667e-014
rhumerus -8.65716 -15.3929 -61.5556
rradius 23.6033
rwrist -0.574085
rhand -28.0635 24.3719
rfingers 7.12502
rthumb -1.44726 -5.60295
lclavicle 3.49861e-014 3.81667e-014
lhumerus -29.8959 -6.70506 94.3643
lradius 47.6993
lwrist 0.376305
lhand 0.191997 44.1942
lfingers 7.12502
lthumb 25.7743 72.4684
rfemur -14.1993 -2.44344 21.2126
rtibia 14.6615
rfoot -9.80593 -12.4986
rtoes 12.775
lfemur -13.8086 -1.04033 -18.1248
ltibia 13.8754
lfoot -9.84682 0.721208
ltoes -2.04698
122
root -0.837993 17.7371 9.07131 10.6892 3.59614 0.304837
lowerback 8.60325 -3.54768 11.7211
upperback 6.31586 -3.97507 11.7169
thorax 2.00089 -1.86095 6.20822
lowerneck -6.0957 -10.5756 -7.54993
upperneck 35.0888 -13.112 -3.08444
head 13.0918 -6.97118 -1.56284
rclavicle -7.31528e-014 -1.27222e-014
rhumerus -8.66127 -15.2286 -61.6008
rradius 23.4044
rwrist -0.227526
rhand -28.3031 24.8497
rfingers 7.12502
rthumb -1.67863 -5.12343
lclavicle -7.31528e-014 -1.27222e-014
lhumerus -29.9597 -6.5574 94.2933
lradius 47.9926
lwrist 0.728622
lhand -0.483539 44.0912
lfingers 7.12502
lthumb 25.1271 72.4576
rfemur -14.3924 -2.83938 21.0506
rtibia 14.8127
rfoot -9.81716 -12.2026
rtoes 12.6706
lfemur -13.8972 -0.919632 -18.3474
ltibia 13.8242
lfoot -9.81618 0.520748
ltoes -1.98389
123
root -0.858223 17.7359 9.06879 10.7202 3.47292 0.367023
lowerback 8.7188 -3.44213 11.6701
upperback 6.34879 -3.82228 11.76
thorax 1.97482 -1.78849 6.27826
lowerneck -6.13507 -10.6319 -7.51636
upperneck 35.1101 -13.2168 -3.01988
head 13.1139 -7.00143 -1.56155
rclavicle 0 -3.18055e-015
rhumerus -8.64977 -15.3051 -61.5163
rradius 23.4184
rwrist 0.202827
rhand -28.6384 25.7056
rfingers 7.12502
rthumb -2.00244 -4.26478
lclavicle 0 -3.18055e-015
lhumerus -29.8766 -6.44519 94.2495
lradius 47.9753
lwrist 0.604249
lhand 0.106194 44.5491
lfingers 7.12502
lthumb 25.6921 72.8352
rfemur -14.6058 -2.56603 21.0321
rtibia 15.0778
rfoot -9.91913 -12.3521
rtoes 12.6211
lfemur -13.8823 -0.849742 -18.3453
ltibia 13.6956
lfoot -9.70563 0.550679
ltoes -2.00517
124
root -0.869519 17.7358 9.05774 10.6978 3.56493 0.350572
lowerback 8.96869 -3.42658 11.8025
upperback 6.32709 -3.73564 11.8722
thorax 1.81389 -1.74789 6.34069
lowerneck -6.12138 -10.6795 -7.63973
upperneck 35.0614 -13.3071 -2.87617
head 13.1171 -7.03595 -1.49879
rclavicle -1.90833e-014 2.22639e-014
rhumerus -8.47081 -15.3448 -61.4449
rradius 23.298
rwrist 0.529021
rhand -28.9793 25.3416
rfingers 7.12502
rthumb -2.33171 -4.62539
lclavicle -1.90833e-014 2.22639e-014
lhumerus -30.048 -6.60771 94.3933
lradius 48.0982
lwrist 0.9717
lhand -0.464578 44.1067
lfingers 7.12502
lthumb 25.1453 72.4707
rfemur -14.7227 -2.51427 21.0923
rtibia 15.3005
rfoot -10.0233 -12.476
rtoes 12.5689
lfemur -13.8644 -0.885665 -18.276
ltibia 13.6127
lfoot -9.64615 0.474441
ltoes -2.18506
125
root -0.880835 17.734 9.05712 10.6556 3.4082 0.686752
lowerback 9.14531 -3.41998 11.4624
upperback 6.39184 -3.72707 11.8323
thorax 1.79856 -1.75437 6.49034
lowerneck -6.06655 -10.6351 -7.60063
upperneck 34.9197 -13.2786 -2.78573
head 13.0468 -7.00995 -1.45532
rclavicle 1.11319e-014 -6.04305e-014
rhumerus -8.55521 -15.3982 -61.6082
rradius 23.5264
rwrist 1.188
rhand -29.5519 25.1614
rfingers 7.12502
rthumb -2.88472 -4.79889
lclavicle 1.11319e-014 -6.04305e-014
lhumerus -29.9949 -6.20511 94.2928
lradius 48.2018
lwrist 0.859439
lhand -0.213893 44.0238
lfingers 7.12502
lthumb 25.3855 72.3539
rfemur -14.7017 -2.40914 20.7388
rtibia 15.3424
rfoot -10.0246 -12.4851
rtoes 12.5586
lfemur -13.833 -0.817417 -18.6273
ltibia 13.7093
lfoot -9.73515 0.495788
ltoes -2.48203
